<svg xmlns="http://www.w3.org/2000/svg" xmlns:xlink="http://www.w3.org/1999/xlink" width="1366" zoomAndPan="magnify" viewBox="0 0 1024.5 352.5" height="470" preserveAspectRatio="xMidYMid meet" version="1.0"><defs><g/><clipPath id="36066ff43b"><rect x="0" width="958" y="0" height="352"/></clipPath></defs><g transform="matrix(1, 0, 0, 1, 29, -0.000000000000030474)"><g clip-path="url(#36066ff43b)"><g fill="#b174e7" fill-opacity="1"><g transform="translate(1.142767, 270.97313)"><g><path d="M 90.40625 3.65625 C 81.207031 3.65625 72.664062 1.125 64.78125 -3.9375 C 56.894531 -9.007812 51.914062 -16.800781 49.84375 -27.3125 L 18.3125 -197.140625 L 67.03125 -197.140625 L 88.71875 -44.21875 C 88.90625 -43.09375 89.328125 -42.296875 89.984375 -41.828125 C 90.640625 -41.359375 91.4375 -41.125 92.375 -41.125 C 93.3125 -41.125 94.109375 -41.359375 94.765625 -41.828125 C 95.421875 -42.296875 96.03125 -43.09375 96.59375 -44.21875 L 166.71875 -197.140625 L 219.109375 -197.140625 L 132.359375 -23.375 C 128.046875 -14.550781 122.132812 -7.835938 114.625 -3.234375 C 107.113281 1.359375 99.039062 3.65625 90.40625 3.65625 Z M 90.40625 3.65625 "/></g></g></g><g fill="#ffffff" fill-opacity="1"><g transform="translate(174.072378, 270.97313)"><g><path d="M 84.765625 0 C 70.117188 0 57.113281 -2.296875 45.75 -6.890625 C 34.394531 -11.492188 25.476562 -18.582031 19 -28.15625 C 12.53125 -37.738281 9.296875 -49.660156 9.296875 -63.921875 C 9.296875 -76.128906 11.453125 -87.347656 15.765625 -97.578125 C 20.085938 -107.816406 26.097656 -116.691406 33.796875 -124.203125 C 41.492188 -131.710938 50.503906 -137.53125 60.828125 -141.65625 C 71.160156 -145.789062 82.332031 -147.859375 94.34375 -147.859375 C 105.414062 -147.859375 114.941406 -146.023438 122.921875 -142.359375 C 130.898438 -138.703125 137.050781 -133.726562 141.375 -127.4375 C 145.695312 -121.144531 147.859375 -114.242188 147.859375 -106.734375 C 147.859375 -97.347656 145.601562 -89.226562 141.09375 -82.375 C 136.582031 -75.519531 130.429688 -69.789062 122.640625 -65.1875 C 114.847656 -60.59375 105.835938 -56.976562 95.609375 -54.34375 C 85.378906 -51.71875 74.535156 -50.03125 63.078125 -49.28125 C 61.578125 -49.09375 60.265625 -49 59.140625 -49 C 58.015625 -49 56.890625 -49.09375 55.765625 -49.28125 C 58.015625 -45.15625 61.671875 -41.914062 66.734375 -39.5625 C 71.804688 -37.21875 78.472656 -36.046875 86.734375 -36.046875 L 125.328125 -36.046875 L 119.6875 0 Z M 53.515625 -76.03125 C 53.890625 -76.03125 54.3125 -76.03125 54.78125 -76.03125 C 55.25 -76.03125 55.859375 -76.03125 56.609375 -76.03125 C 66.179688 -77.164062 74.066406 -78.671875 80.265625 -80.546875 C 86.460938 -82.421875 91.296875 -84.484375 94.765625 -86.734375 C 98.242188 -88.992188 100.6875 -91.34375 102.09375 -93.78125 C 103.5 -96.21875 104.203125 -98.472656 104.203125 -100.546875 C 104.203125 -103.546875 102.976562 -106.171875 100.53125 -108.421875 C 98.09375 -110.679688 94.34375 -111.8125 89.28125 -111.8125 C 82.707031 -111.8125 76.789062 -109.976562 71.53125 -106.3125 C 66.269531 -102.65625 62.09375 -98.148438 59 -92.796875 C 55.90625 -87.441406 54.078125 -82.140625 53.515625 -76.890625 C 53.515625 -76.703125 53.515625 -76.5625 53.515625 -76.46875 C 53.515625 -76.375 53.515625 -76.226562 53.515625 -76.03125 Z M 53.515625 -76.03125 "/></g></g></g><g fill="#ffffff" fill-opacity="1"><g transform="translate(297.687092, 270.97313)"><g><path d="M 5.0625 0 L 21.125 -103.078125 C 23.1875 -116.023438 28.441406 -126.160156 36.890625 -133.484375 C 45.335938 -140.804688 56.132812 -144.46875 69.28125 -144.46875 L 112.09375 -144.46875 L 106.734375 -108.703125 L 75.46875 -108.703125 C 72.84375 -108.703125 70.453125 -107.8125 68.296875 -106.03125 C 66.140625 -104.25 64.867188 -101.945312 64.484375 -99.125 L 48.71875 0 Z M 5.0625 0 "/></g></g></g><g fill="#ffffff" fill-opacity="1"><g transform="translate(373.712387, 270.97313)"><g><path d="M 89.5625 3.65625 C 74.164062 3.65625 61.019531 0.75 50.125 -5.0625 C 39.238281 -10.882812 30.882812 -18.957031 25.0625 -29.28125 C 19.238281 -39.613281 16.328125 -51.632812 16.328125 -65.34375 C 16.328125 -67.59375 16.421875 -69.890625 16.609375 -72.234375 C 16.796875 -74.578125 16.984375 -76.972656 17.171875 -79.421875 L 38.015625 -205.59375 L 81.671875 -205.59375 L 69.5625 -128.421875 L 70.125 -128.421875 C 75.382812 -134.429688 81.625 -139.03125 88.84375 -142.21875 C 96.070312 -145.414062 104.007812 -147.015625 112.65625 -147.015625 C 124.101562 -147.015625 134.238281 -144.242188 143.0625 -138.703125 C 151.882812 -133.160156 158.925781 -125.414062 164.1875 -115.46875 C 169.445312 -105.519531 172.078125 -93.972656 172.078125 -80.828125 C 172.078125 -68.242188 170.101562 -56.789062 166.15625 -46.46875 C 162.21875 -36.144531 156.585938 -27.226562 149.265625 -19.71875 C 141.941406 -12.207031 133.207031 -6.429688 123.0625 -2.390625 C 112.925781 1.640625 101.757812 3.65625 89.5625 3.65625 Z M 90.6875 -34.640625 C 97.445312 -34.640625 103.546875 -36.46875 108.984375 -40.125 C 114.429688 -43.789062 118.796875 -48.816406 122.078125 -55.203125 C 125.367188 -61.585938 127.015625 -68.816406 127.015625 -76.890625 C 127.015625 -83.640625 125.789062 -89.457031 123.34375 -94.34375 C 120.90625 -99.226562 117.476562 -102.984375 113.0625 -105.609375 C 108.65625 -108.234375 103.351562 -109.546875 97.15625 -109.546875 C 90.582031 -109.546875 84.476562 -107.710938 78.84375 -104.046875 C 73.21875 -100.390625 68.757812 -95.414062 65.46875 -89.125 C 62.1875 -82.84375 60.546875 -75.757812 60.546875 -67.875 C 60.546875 -61.113281 61.859375 -55.195312 64.484375 -50.125 C 67.117188 -45.0625 70.734375 -41.210938 75.328125 -38.578125 C 79.929688 -35.953125 85.050781 -34.640625 90.6875 -34.640625 Z M 90.6875 -34.640625 "/></g></g></g><g fill="#ffffff" fill-opacity="1"><g transform="translate(526.894492, 270.97313)"><g><path d="M 4.78125 0 L 27.59375 -144.46875 L 71.53125 -144.46875 L 48.71875 0 Z M 54.078125 -160.8125 C 47.128906 -160.8125 41.304688 -163.203125 36.609375 -167.984375 C 31.921875 -172.773438 29.578125 -178.457031 29.578125 -185.03125 C 29.578125 -190.09375 30.84375 -194.6875 33.375 -198.8125 C 35.90625 -202.945312 39.234375 -206.234375 43.359375 -208.671875 C 47.492188 -211.117188 52.003906 -212.34375 56.890625 -212.34375 C 63.835938 -212.34375 69.65625 -209.945312 74.34375 -205.15625 C 79.039062 -200.375 81.390625 -194.601562 81.390625 -187.84375 C 81.390625 -182.957031 80.164062 -178.445312 77.71875 -174.3125 C 75.28125 -170.1875 71.992188 -166.90625 67.859375 -164.46875 C 63.734375 -162.03125 59.140625 -160.8125 54.078125 -160.8125 Z M 54.078125 -160.8125 "/></g></g></g><g fill="#ffffff" fill-opacity="1"><g transform="translate(575.041975, 270.97313)"><g><path d="M 58.015625 0 C 46.179688 0 37.070312 -3.050781 30.6875 -9.15625 C 24.3125 -15.257812 21.125 -23.566406 21.125 -34.078125 C 21.125 -37.265625 21.40625 -40.457031 21.96875 -43.65625 L 43.9375 -179.671875 L 87.578125 -179.671875 L 67.03125 -50.125 C 66.46875 -46.9375 66.1875 -44.6875 66.1875 -43.375 C 66.1875 -41.300781 66.84375 -39.65625 68.15625 -38.4375 C 69.46875 -37.21875 71.15625 -36.609375 73.21875 -36.609375 L 104.484375 -36.609375 L 98.84375 0 Z M 9.015625 -108.703125 L 14.640625 -144.46875 L 121.65625 -144.46875 L 116.03125 -108.703125 Z M 9.015625 -108.703125 "/></g></g></g><g fill="#ffffff" fill-opacity="1"><g transform="translate(667.962929, 270.97313)"><g><path d="M 81.390625 3.375 C 67.867188 3.375 55.660156 0.515625 44.765625 -5.203125 C 33.878906 -10.929688 25.242188 -18.910156 18.859375 -29.140625 C 12.484375 -39.378906 9.296875 -51.257812 9.296875 -64.78125 C 9.296875 -76.601562 11.59375 -87.535156 16.1875 -97.578125 C 20.789062 -107.628906 27.082031 -116.410156 35.0625 -123.921875 C 43.039062 -131.429688 52.191406 -137.296875 62.515625 -141.515625 C 72.847656 -145.742188 83.738281 -147.859375 95.1875 -147.859375 C 108.707031 -147.859375 120.816406 -144.992188 131.515625 -139.265625 C 142.222656 -133.535156 150.71875 -125.554688 157 -115.328125 C 163.289062 -105.097656 166.4375 -93.128906 166.4375 -79.421875 C 166.4375 -67.773438 164.226562 -56.929688 159.8125 -46.890625 C 155.40625 -36.847656 149.304688 -28.023438 141.515625 -20.421875 C 133.722656 -12.816406 124.707031 -6.945312 114.46875 -2.8125 C 104.238281 1.3125 93.210938 3.375 81.390625 3.375 Z M 84.765625 -34.640625 C 92.460938 -34.640625 99.128906 -36.65625 104.765625 -40.6875 C 110.398438 -44.726562 114.765625 -49.988281 117.859375 -56.46875 C 120.953125 -62.945312 122.5 -69.847656 122.5 -77.171875 C 122.5 -83.546875 121.234375 -89.175781 118.703125 -94.0625 C 116.171875 -98.945312 112.554688 -102.796875 107.859375 -105.609375 C 103.171875 -108.421875 97.632812 -109.828125 91.25 -109.828125 C 83.738281 -109.828125 77.164062 -107.804688 71.53125 -103.765625 C 65.894531 -99.734375 61.484375 -94.523438 58.296875 -88.140625 C 55.109375 -81.765625 53.515625 -74.914062 53.515625 -67.59375 C 53.515625 -61.394531 54.78125 -55.757812 57.3125 -50.6875 C 59.84375 -45.625 63.453125 -41.679688 68.140625 -38.859375 C 72.835938 -36.046875 78.378906 -34.640625 84.765625 -34.640625 Z M 84.765625 -34.640625 "/></g></g></g><g fill="#ffffff" fill-opacity="1"><g transform="translate(815.513173, 270.97313)"><g><path d="M 4.5 -0.28125 L 10.140625 -34.921875 L 80.546875 -34.921875 C 82.984375 -34.921875 85.046875 -35.34375 86.734375 -36.1875 C 88.429688 -37.03125 89.796875 -38.25 90.828125 -39.84375 C 91.859375 -41.445312 92.375 -43.1875 92.375 -45.0625 C 92.375 -47.875 91.476562 -50.125 89.6875 -51.8125 C 87.90625 -53.507812 85.421875 -54.359375 82.234375 -54.359375 L 59.984375 -54.359375 C 51.347656 -54.359375 43.601562 -55.953125 36.75 -59.140625 C 29.894531 -62.328125 24.539062 -66.972656 20.6875 -73.078125 C 16.84375 -79.179688 14.921875 -86.550781 14.921875 -95.1875 C 14.921875 -104.007812 17.125 -112.175781 21.53125 -119.6875 C 25.945312 -127.195312 32.332031 -133.203125 40.6875 -137.703125 C 49.050781 -142.210938 58.957031 -144.46875 70.40625 -144.46875 L 137.71875 -144.46875 L 132.078125 -109.828125 L 70.125 -109.828125 C 67.875 -109.828125 65.898438 -109.40625 64.203125 -108.5625 C 62.515625 -107.71875 61.25 -106.59375 60.40625 -105.1875 C 59.5625 -103.78125 59.046875 -102.234375 58.859375 -100.546875 C 58.859375 -97.722656 59.65625 -95.5625 61.25 -94.0625 C 62.84375 -92.5625 65.144531 -91.8125 68.15625 -91.8125 L 90.125 -91.8125 C 99.695312 -91.8125 107.816406 -90.117188 114.484375 -86.734375 C 121.148438 -83.359375 126.3125 -78.710938 129.96875 -72.796875 C 133.632812 -66.878906 135.46875 -59.976562 135.46875 -52.09375 C 135.46875 -42.519531 133.023438 -33.835938 128.140625 -26.046875 C 123.253906 -18.253906 116.585938 -12.007812 108.140625 -7.3125 C 99.691406 -2.625 90.023438 -0.28125 79.140625 -0.28125 Z M 4.5 -0.28125 "/></g></g></g></g></g></svg>